<svg xmlns="http://www.w3.org/2000/svg" xmlns:xlink="http://www.w3.org/1999/xlink" width="120" height="32" viewBox="0 0 120 32">
  <defs>
    <clipPath id="clip-path">
      <rect id="Rectángulo_7218" data-name="Rectángulo 7218" width="120" height="32" transform="translate(0 0)" fill="#fff"/>
    </clipPath>
  </defs>
  <g id="Grupo_37584" data-name="Grupo 37584" transform="translate(0 -51.455)">
    <g id="Grupo_37649" data-name="Grupo 37649" transform="translate(0 51.455)" clip-path="url(#clip-path)">
      <path id="Trazado_9989" data-name="Trazado 9989" d="M9.829,153.173H4.3a.766.766,0,0,1-.755-.9L8.1,126.4a.767.767,0,0,1,.755-.633h9.165c5.81,0,9.354,2.019,9.354,6.717a8.224,8.224,0,0,1-5.811,8.036c.907.453,1.278,1.2,1.69,2.6l2.458,9.089a.766.766,0,0,1-.739.966H18.948a.766.766,0,0,1-.745-.587l-2-8.315a1.776,1.776,0,0,0-1.937-1.524H12.287l-1.7,9.791a.766.766,0,0,1-.755.635m6.043-15.412a3.831,3.831,0,0,0,4.08-4.163c0-1.813-1.236-2.307-3.5-2.307h-2.1l-1.154,6.47Z" transform="translate(-2.478 -123.441)" fill="#fff"/>
      <path id="Trazado_9990" data-name="Trazado 9990" d="M104.378,150.226c0,6.923-7.83,8.16-12.239,8.449a3.108,3.108,0,0,0,3.461,3.42,10.077,10.077,0,0,0,4.539-1.279.791.791,0,0,1,1.115.457l.953,2.914a.792.792,0,0,1-.357.933A16.647,16.647,0,0,1,93.7,167.2c-6.017,0-8.489-3.626-8.489-8.489,0-7.005,4.657-13.888,12.651-13.888,4.039,0,6.511,1.855,6.511,5.4m-7.5-.535c-2.431,0-3.792,2.6-4.327,4.821,2.39-.124,5.769-1.277,5.769-3.5a1.307,1.307,0,0,0-1.442-1.319" transform="translate(-59.789 -136.813)" fill="#fff"/>
      <path id="Trazado_9991" data-name="Trazado 9991" d="M166.437,128.795l1.077-6.047a1.362,1.362,0,0,1,1.341-1.123h4.01a1.362,1.362,0,0,1,1.343,1.586l-4.326,25.931a1.362,1.362,0,0,1-1.327,1.137l-4.09.048a1.362,1.362,0,0,1-1.343-1.667l.067-.292a6.038,6.038,0,0,1-4.788,2.556c-5.316,0-6.759-4.039-6.759-7.747,0-8.283,4.616-14.629,12.652-14.629a8.978,8.978,0,0,1,2.143.247m-.866,4.9a9.5,9.5,0,0,0-1.031-.082c-4.286,0-5.975,4.657-5.975,8.819,0,2.184.618,3.544,2.266,3.544a2.923,2.923,0,0,0,2.968-2.266Z" transform="translate(-106.396 -120.533)" fill="#fff"/>
      <path id="Trazado_9992" data-name="Trazado 9992" d="M251.828,127.261H235.2a.948.948,0,0,1-.935-1.1l.626-3.739a.948.948,0,0,1,.935-.792h16.663a.948.948,0,0,1,.934,1.113l-.658,3.739a.948.948,0,0,1-.934.784" transform="translate(-164.354 -120.534)" fill="#fff"/>
      <path id="Trazado_9993" data-name="Trazado 9993" d="M242.458,157.724H229.926a.961.961,0,0,0-.95.817l-.619,4.093a.961.961,0,0,0,.95,1.1h11.967a2.187,2.187,0,0,1,2.189,2.818,3.723,3.723,0,0,1-3.447,2.818h-8.144a.961.961,0,0,0-.944.782l-.776,4.093a.961.961,0,0,0,.944,1.14h7.418c6.04,0,9.629-3.919,10.709-8.754l.035-.155c1.079-4.835-1.965-8.754-6.8-8.754" transform="translate(-160.213 -145.862)" fill="#fff"/>
      <path id="Trazado_9994" data-name="Trazado 9994" d="M333.42,135.34h-7.3a1.288,1.288,0,0,0-1.244.878l-1,3.214a.709.709,0,0,0,.713.9h3.446l-.776,3.821a1.139,1.139,0,0,1-1.134.884h-6.009c-4.8,0-7.937-3.674-7-8.205l.033-.158c.937-4.532,4.328-8.205,10.392-8.205h5.609a1.1,1.1,0,0,0,1.1-.881l.664-3.788a1.074,1.074,0,0,0-1.1-1.225H323.87c-11.878,0-16.34,6.348-17.958,14.179s3.8,14.179,12.1,14.179h12.9a1.1,1.1,0,0,0,1.1-.875l.691-3.788a.967.967,0,0,0,.009-.146l1.023-5.791h0l.683-3.877a.976.976,0,0,0-1-1.114" transform="translate(-214.434 -121.198)" fill="#fff"/>
    </g>
  </g>
</svg>
