<svg id="Grupo_37872" data-name="Grupo 37872" xmlns="http://www.w3.org/2000/svg" width="22" height="22" viewBox="0 0 22 22">
  <path id="Trazado_794_00000159454999125680844050000002861052034828745147_" d="M27.5,52.1H25.738c-.055-.011-.11-.026-.166-.032-.965-.1-1.937-.167-2.893-.322a10.779,10.779,0,0,1-4.066-1.465,6.015,6.015,0,0,1-2.739-3.542c-.107-.382-.157-.78-.234-1.171v-1.07a1.719,1.719,0,0,0,.04-.186,9.056,9.056,0,0,1,.909-3.161,1.166,1.166,0,0,0,.119-.638,37.478,37.478,0,0,1-.077-4.787,15.863,15.863,0,0,1,.518-3.559,4.559,4.559,0,0,1,.837-1.726.8.8,0,0,1,.917-.288,7.846,7.846,0,0,1,5.26,4.5c.029.063.062.126.1.2a10.117,10.117,0,0,1,4.756,0c.024-.026.037-.034.043-.047.025-.052.046-.1.07-.153A7.871,7.871,0,0,1,34.5,30.128a.638.638,0,0,1,.684.193,3.823,3.823,0,0,1,.49.674,8.344,8.344,0,0,1,.83,3.023,35.174,35.174,0,0,1,.071,6.648.843.843,0,0,0,.071.388,10.207,10.207,0,0,1,.923,3.045,6.2,6.2,0,0,1-.942,4.307,6.925,6.925,0,0,1-3.018,2.433,14.945,14.945,0,0,1-4.986,1.171c-.378.031-.755.057-1.132.086m8.788-7.221H33.57a.688.688,0,0,1-.008-1.376h2.545c-.164-.476-.29-.93-.475-1.361a10.2,10.2,0,0,0-4.753-5.117,8.452,8.452,0,0,0-5.8-.931A10.11,10.11,0,0,0,17.544,42.4c-.148.345-.235.715-.359,1.1h2.509a1.043,1.043,0,0,1,.234.018.688.688,0,0,1-.162,1.357c-.841.006-1.675,0-2.512,0h-.268l.153,1.376H19.7a.688.688,0,0,1,0,1.376H17.96c-.052,0-.1.01-.211.022.245.275.443.529.673.751a7.336,7.336,0,0,0,3.171,1.682,17.2,17.2,0,0,0,3.954.616,18.687,18.687,0,0,0,6.447-.716,6.727,6.727,0,0,0,3.088-1.816c.146-.159.273-.337.438-.541H33.575a.688.688,0,0,1,0-1.376h2.563l.144-1.376m-.993-5.993c.008-.067.015-.1.016-.136a29.484,29.484,0,0,0-.212-4.97,6.979,6.979,0,0,0-.548-2.02c-.066-.139-.13-.183-.293-.126a6.584,6.584,0,0,0-2.516,1.589,6.391,6.391,0,0,0-1.363,2.033,12.225,12.225,0,0,1,4.917,3.63M22.911,35.27a.444.444,0,0,0-.011-.077A6.52,6.52,0,0,0,19,31.616c-.127-.045-.192-.005-.229.107a13.58,13.58,0,0,0-.459,1.467,23.674,23.674,0,0,0-.33,5.088v.565a12.537,12.537,0,0,1,4.925-3.573" transform="translate(-15.64 -30.097)" fill="#123446"/>
  <path id="Trazado_795_00000065068354179734920940000007280503422919476365_" d="M152.721,321.018a2.888,2.888,0,0,1-1.4-2.1,1.384,1.384,0,0,1,1.263-1.746,9.061,9.061,0,0,1,1.872,0,1.387,1.387,0,0,1,1.275,1.758,2.866,2.866,0,0,1-1.381,2.09,1.253,1.253,0,0,0,1.53.9c.033-.009.067-.019.1-.03a1.3,1.3,0,0,0,.888-1.232.744.744,0,0,1,.751-.735.752.752,0,0,1,.281.058.731.731,0,0,1,.451.72,2.771,2.771,0,0,1-2.345,2.7,2.7,2.7,0,0,1-2.379-.758c-.027-.026-.056-.05-.09-.083-.159.13-.3.269-.468.38a2.663,2.663,0,0,1-2.833.185,2.637,2.637,0,0,1-1.527-2.394.743.743,0,1,1,1.477-.161.758.758,0,0,1,0,.11,1.308,1.308,0,0,0,1.188,1.268,1.273,1.273,0,0,0,1.337-.927m.067-2.394a1.421,1.421,0,0,0,.528,1.009.313.313,0,0,0,.406.022,1.386,1.386,0,0,0,.558-1.03Z" transform="translate(-142.538 -303.665)" fill="#123446"/>
  <path id="Trazado_796_00000102527565322658614590000018026995187813775278_" d="M151.415,241.544a1.3,1.3,0,1,1-1.291-1.3h0a1.3,1.3,0,0,1,1.29,1.3" transform="translate(-142.353 -230.028)" fill="#123446"/>
  <path id="Trazado_797_00000042017971533232141760000005678740348253547158_" d="M281.91,241.535a1.3,1.3,0,1,1,1.3,1.3,1.3,1.3,0,0,1-1.3-1.3" transform="translate(-268.98 -230.028)" fill="#123446"/>
</svg>
