<svg xmlns="http://www.w3.org/2000/svg" xmlns:xlink="http://www.w3.org/1999/xlink" width="312" height="136.86" viewBox="0 0 312 136.86">
  <defs>
    <clipPath id="clip-path">
      <rect id="Rectángulo_7408" data-name="Rectángulo 7408" width="312.001" height="136.86" fill="none"/>
    </clipPath>
    <clipPath id="clip-path-2">
      <rect id="Rectángulo_7397" data-name="Rectángulo 7397" width="20.98" height="29.632" fill="none"/>
    </clipPath>
    <clipPath id="clip-path-3">
      <rect id="Rectángulo_7398" data-name="Rectángulo 7398" width="20.91" height="29.913" fill="none"/>
    </clipPath>
    <clipPath id="clip-path-5">
      <rect id="Rectángulo_7400" data-name="Rectángulo 7400" width="11.116" height="16.205" fill="none"/>
    </clipPath>
    <clipPath id="clip-path-6">
      <rect id="Rectángulo_7401" data-name="Rectángulo 7401" width="24.368" height="29.711" fill="none"/>
    </clipPath>
    <clipPath id="clip-path-7">
      <rect id="Rectángulo_7402" data-name="Rectángulo 7402" width="24.364" height="31.856" fill="#f8c845"/>
    </clipPath>
    <clipPath id="clip-path-8">
      <rect id="Rectángulo_7403" data-name="Rectángulo 7403" width="8.69" height="7.686" fill="#f8c845"/>
    </clipPath>
    <clipPath id="clip-path-9">
      <rect id="Rectángulo_7404" data-name="Rectángulo 7404" width="16.266" height="31.049" fill="#f8c845"/>
    </clipPath>
    <clipPath id="clip-path-11">
      <rect id="Rectángulo_7406" data-name="Rectángulo 7406" width="16.267" height="31.049" fill="#f8c845"/>
    </clipPath>
    <clipPath id="clip-path-12">
      <rect id="Rectángulo_7407" data-name="Rectángulo 7407" width="12.929" height="11.33" fill="#f8c845"/>
    </clipPath>
  </defs>
  <g id="Grupo_37891" data-name="Grupo 37891" transform="translate(0 0)">
    <g id="Grupo_37924" data-name="Grupo 37924" transform="translate(0 0)" clip-path="url(#clip-path)">
      <path id="Trazado_10152" data-name="Trazado 10152" d="M60.092,9.068c5.059.068,8.408,3.417,8.2,10.6s-6.631,9.161-8.955,9.161-3.9-.07-3.9-.07l.411,8.887-8.2.684L44.847,9.82S55.033,9,60.092,9.068M56.347,22.24a2.651,2.651,0,0,0,2.754-3.1,2.589,2.589,0,0,0-3.016-2.627c-.568,0-1.206,0-1.206,0l.264,5.727s.418,0,1.2,0" transform="translate(20.253 4.093)" fill="#fff"/>
      <path id="Trazado_10153" data-name="Trazado 10153" d="M79.322,7.488c2.609,0,7.476,1.128,7.4,7.686s-4.443,8.181-4.443,8.181L87.5,35.063l-8.887.494L74.032,25.048l.353,11-8.251.636L63.453,8.4s13.259-.916,15.869-.916m-6.259,7.38.25,4.606s4.618.61,4.317-2.748c-.251-2.794-4.567-1.858-4.567-1.858" transform="translate(28.656 3.381)" fill="#fff"/>
      <path id="Trazado_10154" data-name="Trazado 10154" d="M99.886,20.324c.382,4.136-1.391,7.679-3.96,7.916s-4.959-2.924-5.34-7.058,1.392-7.678,3.96-7.916,4.96,2.924,5.34,7.058M94.019,5.469c-7.741.63-13.694,5.538-12.8,16.11.8,9.52,7.493,14.459,15.236,13.829S110,29.2,109.255,19.3C108.474,8.906,101.76,4.839,94.019,5.469" transform="translate(36.638 2.441)" fill="#fff"/>
      <g id="Grupo_37893" data-name="Grupo 37893" transform="translate(145.51 5.691)" style="mix-blend-mode: normal;isolation: isolate">
        <g id="Grupo_37892" data-name="Grupo 37892">
          <g id="Grupo_37891-2" data-name="Grupo 37891" clip-path="url(#clip-path-2)">
            <path id="Trazado_10155" data-name="Trazado 10155" d="M100.241,5.477l.447,8.155,6.027-.311,1.743,20.231,8.528-.5-1.306-20.668,5.539-.248-.435-8.218Z" transform="translate(-100.241 -3.921)" fill="#fff"/>
          </g>
        </g>
      </g>
      <g id="Grupo_37896" data-name="Grupo 37896" transform="translate(168.859 4.031)" style="mix-blend-mode: normal;isolation: isolate">
        <g id="Grupo_37895" data-name="Grupo 37895">
          <g id="Grupo_37894" data-name="Grupo 37894" clip-path="url(#clip-path-3)">
            <path id="Trazado_10156" data-name="Trazado 10156" d="M116.326,4.063l2.908,28.627,18-1.455-.335-7.021-9.9.928.224-3.52,9.113-.9-.325-7.38-9.515.592V11.276l8.164-.5-.5-8Z" transform="translate(-116.326 -2.777)" fill="#fff"/>
          </g>
        </g>
      </g>
      <g id="Grupo_37899" data-name="Grupo 37899" transform="translate(219.519 0)" style="mix-blend-mode: normal;isolation: isolate">
        <g id="Grupo_37898" data-name="Grupo 37898">
          <g id="Grupo_37897" data-name="Grupo 37897" clip-path="url(#clip-path-3)">
            <path id="Trazado_10157" data-name="Trazado 10157" d="M151.225,1.286l2.908,28.627,18-1.455-.335-7.021-10.01.694-.109-3.324,9.56-.859-.325-7.38-9.515.592V8.5l8.164-.5-.5-8Z" transform="translate(-151.225 0)" fill="#fff"/>
          </g>
        </g>
      </g>
      <g id="Grupo_37902" data-name="Grupo 37902" transform="translate(197.575 38.603)" style="mix-blend-mode: normal;isolation: isolate">
        <g id="Grupo_37901" data-name="Grupo 37901">
          <g id="Grupo_37900" data-name="Grupo 37900" clip-path="url(#clip-path-5)">
            <path id="Trazado_10158" data-name="Trazado 10158" d="M136.108,27.072l1.23,15.727,9.887-.568-.094-3.853-5.5.253-.016-1.823,5.25-.35-.084-4.049-5.223.2.033-1.459,4.481-.171-.174-4.39Z" transform="translate(-136.108 -26.594)" fill="#123446"/>
          </g>
        </g>
      </g>
      <g id="Grupo_37905" data-name="Grupo 37905" transform="translate(191.815 1.889)" style="mix-blend-mode: normal;isolation: isolate">
        <g id="Grupo_37904" data-name="Grupo 37904">
          <g id="Grupo_37903" data-name="Grupo 37903" clip-path="url(#clip-path-6)">
            <path id="Trazado_10159" data-name="Trazado 10159" d="M155.418,10.478l-.248-8.072S144.621-.668,138.084,3.443s-8.171,16.3-2.427,23.278,18.325,3.914,20.851,1.437l-.6-13.966-11.886.842.3,6.091,3.615-.2.049,3.119s-2.742.184-4.109-1.1-2.713-4.059-2.427-8.112c.29-4.127,3.07-6.29,7.132-6.29a12.921,12.921,0,0,1,6.834,1.932" transform="translate(-132.14 -1.301)" fill="#fff"/>
          </g>
        </g>
      </g>
      <path id="Trazado_10160" data-name="Trazado 10160" d="M66.434,48.694l3.327-16.18,6.123-.489,5.847,15.412-4.957.465-.9-2.386-4.134.361-.563,2.489Zm6.975-10.4c-.036-.128-.046-.222-.21-.222-.107,0-.15.177-.163.283l-.469,3.929,1.971-.131-1.122-3.826" transform="translate(30.002 14.462)" fill="#133447"/>
      <path id="Trazado_10161" data-name="Trazado 10161" d="M81.278,31.478l1.544,15.85,9.717-.79-.255-3.749-5.056.375-.7-12.112Z" transform="translate(36.705 14.023)" fill="#133447"/>
      <path id="Trazado_10162" data-name="Trazado 10162" d="M99.323,38.4c.2,2.337-.82,4.33-2.272,4.452s-2.787-1.672-2.984-4.009.822-4.33,2.273-4.452,2.787,1.674,2.983,4.009m-3.246-8.416c-4.375.321-7.759,3.064-7.3,9.041.412,5.38,4.168,8.2,8.543,7.879s7.678-3.443,7.3-9.041c-.393-5.873-4.166-8.2-8.541-7.879" transform="translate(40.072 13.528)" fill="#133447"/>
      <path id="Trazado_10163" data-name="Trazado 10163" d="M129.366,45.306,127.048,42.6a8.565,8.565,0,0,0,2.053-6.667c-.393-5.873-4.166-8.2-8.541-7.879s-7.759,3.064-7.3,9.039c.412,5.381,4.168,8.2,8.543,7.881a9.409,9.409,0,0,0,1.179-.187l3.257,2.318Zm-7.833-4.385c-1.452.122-2.787-1.674-2.984-4.011s.822-4.329,2.273-4.452,2.787,1.674,2.983,4.011-.82,4.33-2.272,4.452" transform="translate(51.128 12.655)" fill="#133447"/>
      <path id="Trazado_10164" data-name="Trazado 10164" d="M111.151,34.734l-.293-4.766s-4.975-1.932-8.594.707a4.862,4.862,0,0,0,1.6,8.525c2.251.71,3.353,1.44,3.186,2.1s-.843,1.343-3.217.72a4.789,4.789,0,0,1-2.58-1.531l.435,4.814a9.663,9.663,0,0,0,5.727.53c3.569-.6,4.8-2.9,4.661-5.507s-1.214-3.314-3.276-4.244-3.191-1.1-3.212-1.99,2.961-1.518,5.563.647" transform="translate(45.326 13.225)" fill="#133447"/>
      <path id="Trazado_10165" data-name="Trazado 10165" d="M125.06,28.212l5-.408s.621,9.075.668,9.991.019,2.5,1.627,2.376,1.511-1.488,1.463-2.214-.964-10.395-.964-10.395l5.194-.334s.645,9.62.665,11.2a4.983,4.983,0,0,1-3,4.815c-2.35.96-5.442,1.15-7.664-.389s-2.064-5.371-2.16-6.483-.822-8.162-.822-8.162" transform="translate(56.478 12.296)" fill="#133447"/>
      <path id="Trazado_10166" data-name="Trazado 10166" d="M136.187,27.247l1.569,15.828,9.954-.781-.176-3.882-5.535.37-.055-1.838,5.285-.462-.17-4.08-5.261.315,0-1.47,4.513-.269-.267-4.42Z" transform="translate(61.503 11.994)" fill="#133447"/>
      <path id="Trazado_10167" data-name="Trazado 10167" d="M269.835,86.583l-.65-16.808-.735-18.993A10.38,10.38,0,0,0,258.1,40.8c-.28,0-.562.01-.845.033L30.342,58.87a10.53,10.53,0,0,0-9.524,12.391l2.227,12.186,3.35,18.334a7.569,7.569,0,0,0,7.714,6.142l31.183-1.415,166.077-7.538,28.258-1.283a10.728,10.728,0,0,0,10.208-11.1" transform="translate(9.324 18.426)" fill="#133447"/>
      <path id="Trazado_10168" data-name="Trazado 10168" d="M192.513,77.569l-.65-16.808Z" transform="translate(86.646 27.44)" fill="#123446"/>
      <path id="Trazado_10169" data-name="Trazado 10169" d="M165.812,81.272,194.07,79.99Z" transform="translate(74.881 36.123)" fill="#123446"/>
      <path id="Trazado_10170" data-name="Trazado 10170" d="M228.946,80.347c-2-1.852-3.648-4.04-2.378-6.915,1.909-4.321,10.663-10.147,10.071-12.3-.571-2.071-9.483-3.391-32.152.235l.653,16.913a11.641,11.641,0,0,1-11.076,12.047L165.914,91.61c.359,1.88,1.1,3.871,2.623,4.615,3.2,1.555,3.639,1.333,8.528.74s37.781-2.593,47.707-3.555,12.15-1.778,12.3-4.149-6.124-7.062-8.125-8.914" transform="translate(74.927 26.689)" fill="#133447"/>
      <path id="Trazado_10171" data-name="Trazado 10171" d="M43.094,95.562a8.437,8.437,0,0,1-8.27-6.894L31.449,70.2c-10.032.322-20.407.9-26.035,2.132C-1.819,73.922-.229,75.784,1.3,76.88s11.233,6.85,11.452,10.575-5.48,8.056-7.123,10.632-4.384,6.959,2.52,7.068,40.6-2.849,47.179-3.342,12.221-.494,14.522-.932c2.058-.392,4.455-2.5,4.712-6.738L43.474,95.554c-.128.006-.254.009-.38.009" transform="translate(0 31.702)" fill="#133447"/>
      <path id="Trazado_10172" data-name="Trazado 10172" d="M22.3,70.18l3.35,18.334Z" transform="translate(10.07 31.693)" fill="#123446"/>
      <g id="Grupo_37908" data-name="Grupo 37908" transform="translate(75.433 86.27)" style="mix-blend-mode: normal;isolation: isolate">
        <g id="Grupo_37907" data-name="Grupo 37907">
          <g id="Grupo_37906" data-name="Grupo 37906" clip-path="url(#clip-path-7)">
            <path id="Trazado_10173" data-name="Trazado 10173" d="M58.854,69.831S56.249,90.817,56.012,91.15s-2.979.044-3.736-.613c-.292-.251-.392-1.382-.241-3.066S54.221,65.513,54.6,63.327s.428-2.638,1.86-2.838a15.427,15.427,0,0,1,3.744-.126c.327.126,1.08,3.04,1.809,5.9s2.262,7.714,2.362,8.016.351.578.5-.151.553-12.009,1.006-13.316.6-.93,1.2-1.006,3.493-.351,3.819-.376.729.3.829,1.382,3.895,24.043,4.3,25.625.478,2.362-.251,2.437-3.668.3-3.668.3l-3.066-19.7L67.008,89.2l-2.613.226Z" transform="translate(-51.966 -59.431)" fill="#f8c845"/>
          </g>
        </g>
      </g>
      <path id="Trazado_10174" data-name="Trazado 10174" d="M80.644,57.614c2.143-.157,5.054.758,6.316,8.022s1.485,22.77,1.453,23.181-.82.694-1.295.694a14.407,14.407,0,0,0-1.642,0c-.441.064-1.517.253-1.643-1.2s-.978-7.36-1.073-8.022.03-.916-.948-.822-4.485.505-4.485.505.917,7.484,1.012,8.212.727,1.989,0,2.147-3.726.726-4.485-.285S72.18,78.8,72.213,74.541s1.071-16.39,8.431-16.927m-2.951,8.265c-.57,1.852-.463,6.632-.463,7.306s-.128,1.283.505,1.706,4.358.357,4.693.084-.1-3.79-.271-7.117-1.254-4.667-2.443-4.484c-.822.126-1.452.653-2.021,2.505" transform="translate(32.611 26.011)" fill="#f8c845"/>
      <g id="Grupo_37911" data-name="Grupo 37911" transform="translate(106.541 75.774)" style="mix-blend-mode: normal;isolation: isolate">
        <g id="Grupo_37910" data-name="Grupo 37910">
          <g id="Grupo_37909" data-name="Grupo 37909" clip-path="url(#clip-path-8)">
            <path id="Trazado_10175" data-name="Trazado 10175" d="M73.43,58.709c-.184.3.4,1.177,1.1,1.177s1.145-.483,1.675-.871,5.4-4.031,5.724-4.4a1.153,1.153,0,0,0-.144-1.338c-.241-.225-1.161-1.193-1.71-1.064s-4.618,4.433-5.229,5.014a7.344,7.344,0,0,0-1.412,1.484" transform="translate(-73.395 -52.2)" fill="#f8c845"/>
          </g>
        </g>
      </g>
      <g id="Grupo_37914" data-name="Grupo 37914" transform="translate(124.775 82.612)" style="mix-blend-mode: normal;isolation: isolate">
        <g id="Grupo_37913" data-name="Grupo 37913">
          <g id="Grupo_37912" data-name="Grupo 37912" clip-path="url(#clip-path-9)">
            <path id="Trazado_10176" data-name="Trazado 10176" d="M91.314,66.3c-.057-1.312.888-2.572,3.334-2.633s4.944.466,5.61-.784,1.556-3.722,0-4.5-6.611-3.167-10.584.556-4.5,9.556-2.334,12.694,8.974,2.918,10,5.724-.279,5.806-3.278,5.361S87.452,81.414,86.4,82.3s-.222,3.918,2.611,5.028,9.139,1.055,11.556-2.722,2.472-10.5-1.723-13.224-7.416-2.527-7.528-5.084" transform="translate(-85.956 -56.911)" fill="#f8c845"/>
          </g>
        </g>
      </g>
      <g id="Grupo_37917" data-name="Grupo 37917" transform="translate(185.99 76.596)" style="mix-blend-mode: normal;isolation: isolate">
        <g id="Grupo_37916" data-name="Grupo 37916">
          <g id="Grupo_37915" data-name="Grupo 37915" clip-path="url(#clip-path-7)">
            <path id="Trazado_10177" data-name="Trazado 10177" d="M135.016,63.166s-2.606,20.986-2.842,21.318-2.979.044-3.736-.613c-.292-.251-.392-1.382-.241-3.066s2.186-21.958,2.562-24.145.428-2.638,1.859-2.838a15.427,15.427,0,0,1,3.744-.126c.327.126,1.08,3.04,1.809,5.9s2.262,7.714,2.362,8.016.351.578.5-.151.553-12.009,1.006-13.316.6-.93,1.2-1.006,3.493-.351,3.819-.376.729.3.829,1.382,3.895,24.043,4.3,25.625.478,2.362-.251,2.437-3.668.3-3.668.3l-3.066-19.7L143.17,82.539l-2.613.226Z" transform="translate(-128.127 -52.766)" fill="#f8c845"/>
          </g>
        </g>
      </g>
      <path id="Trazado_10178" data-name="Trazado 10178" d="M156.807,50.95c2.143-.157,5.053.758,6.316,8.022s1.484,22.77,1.453,23.181-.822.694-1.295.694a14.427,14.427,0,0,0-1.643,0c-.441.064-1.516.253-1.642-1.2s-.98-7.36-1.074-8.022.032-.916-.946-.822-4.486.505-4.486.505.916,7.484,1.01,8.212.727,1.989,0,2.147-3.726.726-4.484-.285-1.674-11.243-1.642-15.506,1.073-16.39,8.432-16.927m-2.953,8.265c-.569,1.852-.463,6.632-.463,7.306s-.126,1.283.505,1.706,4.358.357,4.694.084-.1-3.79-.273-7.117-1.254-4.667-2.443-4.484c-.82.126-1.452.653-2.021,2.505" transform="translate(67.006 23.002)" fill="#f8c845"/>
      <path id="Trazado_10179" data-name="Trazado 10179" d="M122.494,51.515c2.143-.157,5.053.758,6.316,8.022s1.484,22.77,1.453,23.181-.822.694-1.295.694a14.431,14.431,0,0,0-1.643,0c-.441.064-1.515.253-1.642-1.2s-.98-7.358-1.074-8.022.032-.916-.946-.822-4.485.505-4.485.505.916,7.484,1.01,8.212.727,1.989,0,2.147-3.726.726-4.484-.285-1.674-11.243-1.642-15.506,1.073-16.39,8.432-16.927m-2.953,8.265c-.569,1.852-.463,6.632-.463,7.306s-.126,1.283.505,1.706,4.358.357,4.694.084-.1-3.79-.273-7.117-1.254-4.667-2.443-4.484c-.82.126-1.452.653-2.021,2.505" transform="translate(51.51 23.257)" fill="#f8c845"/>
      <g id="Grupo_37920" data-name="Grupo 37920" transform="translate(235.331 72.938)" style="mix-blend-mode: normal;isolation: isolate">
        <g id="Grupo_37919" data-name="Grupo 37919">
          <g id="Grupo_37918" data-name="Grupo 37918" clip-path="url(#clip-path-11)">
            <path id="Trazado_10180" data-name="Trazado 10180" d="M167.476,59.637c-.057-1.312.888-2.572,3.334-2.633s4.944.466,5.61-.784,1.556-3.722,0-4.5-6.611-3.167-10.584.556-4.5,9.556-2.334,12.694,8.974,2.918,10,5.724-.277,5.806-3.278,5.361-6.612-1.3-7.667-.417-.222,3.918,2.611,5.028,9.139,1.055,11.556-2.722S179.2,67.444,175,64.721s-7.416-2.527-7.528-5.084" transform="translate(-162.118 -50.246)" fill="#f8c845"/>
          </g>
        </g>
      </g>
      <g id="Grupo_37923" data-name="Grupo 37923" transform="translate(145.999 89.851)" style="mix-blend-mode: normal;isolation: isolate">
        <g id="Grupo_37922" data-name="Grupo 37922">
          <g id="Grupo_37921" data-name="Grupo 37921" clip-path="url(#clip-path-12)">
            <path id="Trazado_10181" data-name="Trazado 10181" d="M107.708,66.542s.492-5.725,4.178-4.462c3.893,1.334-.109,10.608-2.757,11.111s-7.435-4.154-8.376-7.413,2.121-4.44,4.2-2.909a8.1,8.1,0,0,1,2.755,3.674" transform="translate(-100.578 -61.898)" fill="#f8c845"/>
          </g>
        </g>
      </g>
      <path id="Trazado_10182" data-name="Trazado 10182" d="M154.694,33.249l32.89-4.455A1.61,1.61,0,1,1,187.862,32l-33.168,1.25" transform="translate(69.86 12.996)" fill="#133447"/>
      <path id="Trazado_10183" data-name="Trazado 10183" d="M70.661,40.986,37.882,46.2a1.61,1.61,0,1,1-.351-3.2l33.13-2.013" transform="translate(16.266 18.509)" fill="#133447"/>
      <path id="Trazado_10184" data-name="Trazado 10184" d="M208.247,42.957c1.031,0,.784.838.96,1.729a6.177,6.177,0,0,0,1.945,2.9c.865.717,2.134,1.77,2.309,1.865s-.5.81-1.08.878a5.712,5.712,0,0,0-3.8,2.026c-1.23,1.62-1.716,3.012-2.324,2.931s-.285-1.756-.244-2.688a3.436,3.436,0,0,0-1.108-2.635c-.81-.823-1.77-1.256-1.81-2.04s.094-.675.54-.7a5.407,5.407,0,0,0,3.054-2.013c.9-1.324.512-2.256,1.553-2.256" transform="translate(91.717 19.399)" fill="#fccc47"/>
    </g>
  </g>
</svg>
