<svg xmlns="http://www.w3.org/2000/svg" xmlns:xlink="http://www.w3.org/1999/xlink" width="24" height="20" viewBox="0 0 24 20">
  <defs>
    <clipPath id="clip-path">
      <rect id="Rectángulo_7380" data-name="Rectángulo 7380" width="24" height="20" transform="translate(0.001 0)"/>
    </clipPath>
  </defs>
  <g id="ICONO_PERRO" data-name="ICONO PERRO" transform="translate(-8.001 0)">
    <g id="Grupo_178" transform="translate(8 0)" clip-path="url(#clip-path)">
      <path id="Trazado_798" d="M59.645,102.509c-.476-.054-.954-.1-1.429-.164a8.548,8.548,0,0,1-4.186-1.6,5.78,5.78,0,0,1-2.217-4.093,9.611,9.611,0,0,1,.1-2.741,1.815,1.815,0,0,0,.012-.205c-.174-.036-.345-.069-.513-.108a3.287,3.287,0,0,1-2.535-3.923,3.251,3.251,0,0,1,.189-.579,10.948,10.948,0,0,1,3.2-4.416,4.635,4.635,0,0,1,2.013-1.049,3.327,3.327,0,0,1,2.393.282.34.34,0,0,0,.29-.011,7.744,7.744,0,0,1,7.635-.048.313.313,0,0,0,.265.022,3.436,3.436,0,0,1,3.3-.036,4.843,4.843,0,0,1,1.032.631A11.209,11.209,0,0,1,72.431,88.7a3.808,3.808,0,0,1,.349,2.045,3.372,3.372,0,0,1-2.812,2.819c-.088.016-.176.035-.242.049.051.683.127,1.341.141,2a6.148,6.148,0,0,1-1.472,4.4,6.852,6.852,0,0,1-3.8,2.108c-.773.17-1.57.232-2.355.348-.091.013-.18.032-.27.048Zm.313-1.649a.706.706,0,0,0,.022-.112c0-1.091.007-2.181-.005-3.269a.374.374,0,0,0-.187-.249,3.394,3.394,0,0,1-1.493-1.561,1.863,1.863,0,0,1,.83-2.527,1.935,1.935,0,0,1,.528-.176,5.5,5.5,0,0,1,2.206-.029,1.865,1.865,0,0,1,1.675,2.045,1.8,1.8,0,0,1-.061.308,3.06,3.06,0,0,1-1.608,1.923.347.347,0,0,0-.22.352c.01,1.009,0,2.017,0,3.026v.27a10.324,10.324,0,0,0,3.879-.765,4.173,4.173,0,0,0,2.57-3.166,7.3,7.3,0,0,0-.212-3.583c-.389-1.223-.838-2.423-1.291-3.623a23.026,23.026,0,0,0-.956-2.26,4.885,4.885,0,0,0-4.194-2.921,5,5,0,0,0-4.621,1.7,7.568,7.568,0,0,0-1.105,1.814c-.666,1.622-1.263,3.273-1.854,4.924a7.721,7.721,0,0,0-.39,3.573,4.149,4.149,0,0,0,2.094,3.258,9.446,9.446,0,0,0,4.383,1.05M66.1,85.124a.548.548,0,0,0,.048.1A11.162,11.162,0,0,1,67.927,88.5c.407,1.089.8,2.183,1.21,3.269.032.085.125.209.189.209a1.687,1.687,0,0,0,1.8-1.562,1.665,1.665,0,0,0-.008-.294,4.064,4.064,0,0,0-.306-.983,9.5,9.5,0,0,0-2.71-3.434,2.4,2.4,0,0,0-2-.583m-10.6.1a.713.713,0,0,0-.123-.049,2.015,2.015,0,0,0-.223-.011,2.594,2.594,0,0,0-1.579.584,8.783,8.783,0,0,0-2.2,2.465,8.086,8.086,0,0,0-.8,1.691,1.626,1.626,0,0,0,1.056,2.061,1.678,1.678,0,0,0,.327.071c.439.069.438.069.59-.348.053-.145.106-.29.164-.434.821-2.051,1.316-4.243,2.787-6.029m5.333,9.242a6.569,6.569,0,0,0-.789.09.394.394,0,0,0-.261.25c-.039.348.675,1.043,1.041,1.039a.361.361,0,0,0,.134-.028,1.6,1.6,0,0,0,.882-.854c.1-.231.026-.367-.231-.412s-.511-.057-.777-.084" transform="translate(-48.811 -82.69)" fill="#123446"/>
      <path id="Trazado_799" d="M189.406,185.126a1.033,1.033,0,1,1-1.033-1.016h0a1.024,1.024,0,0,1,1.033,1.016" transform="translate(-179.081 -177.981)" fill="#123446"/>
      <path id="Trazado_800" d="M280.566,185.126a1.033,1.033,0,1,1-1.033-1.016h0a1.024,1.024,0,0,1,1.033,1.016" transform="translate(-264.799 -177.981)" fill="#123446"/>
    </g>
  </g>
</svg>
