<svg id="Grupo_38737" data-name="Grupo 38737" xmlns="http://www.w3.org/2000/svg" width="108" height="24" viewBox="0 0 108 24">
  <g id="Grupo_39" data-name="Grupo 39" transform="translate(0 0)">
    <path id="Trazado_139" data-name="Trazado 139" d="M144.979,30.648a2.59,2.59,0,0,0,1.188-.235.833.833,0,0,0,.471-.8,1.261,1.261,0,0,0-.08-.465.851.851,0,0,0-.281-.346,2.335,2.335,0,0,0-.508-.3c-.206-.094-.467-.205-.779-.335-.242-.1-.483-.206-.7-.314a2.74,2.74,0,0,1-.588-.373,1.488,1.488,0,0,1-.571-1.227,1.6,1.6,0,0,1,.612-1.312,2.53,2.53,0,0,1,1.676-.5,4.344,4.344,0,0,1,1.126.118,3.717,3.717,0,0,1,.622.2l-.192.749c-.1-.053-.276-.12-.517-.21a3.556,3.556,0,0,0-1.076-.126,2.4,2.4,0,0,0-.533.054,1.353,1.353,0,0,0-.446.183.961.961,0,0,0-.308.31.845.845,0,0,0-.116.462.936.936,0,0,0,.1.458,1.018,1.018,0,0,0,.3.344,2.48,2.48,0,0,0,.486.276c.195.088.414.181.664.282s.5.208.743.312a2.7,2.7,0,0,1,.618.387,1.809,1.809,0,0,1,.44.541,1.706,1.706,0,0,1,.167.791,1.553,1.553,0,0,1-.673,1.366,3.253,3.253,0,0,1-1.849.462,4.631,4.631,0,0,1-1.339-.149,4.7,4.7,0,0,1-.614-.225l.219-.756c.02.013.079.043.162.081s.2.082.346.128a3.744,3.744,0,0,0,.524.122,4.012,4.012,0,0,0,.7.051" transform="translate(-115.328 -24.434)" fill="#0899d7"/>
    <path id="Trazado_140" data-name="Trazado 140" d="M171.034,27.377a2.591,2.591,0,0,0-.483-1.617,1.588,1.588,0,0,0-1.312-.583,1.751,1.751,0,0,0-.8.182,1.953,1.953,0,0,0-.618.481,2.193,2.193,0,0,0-.409.7,2.747,2.747,0,0,0-.176.833Zm-4.717.528a4.159,4.159,0,0,1,.252-1.522,3.371,3.371,0,0,1,.655-1.09,2.547,2.547,0,0,1,.925-.646,2.794,2.794,0,0,1,1.078-.214,2.5,2.5,0,0,1,1.946.8,3.566,3.566,0,0,1,.728,2.459c0,.069-.005.133-.01.207a1.415,1.415,0,0,1-.02.195h-4.661a2.928,2.928,0,0,0,.6,1.878,2.27,2.27,0,0,0,1.8.652,3.564,3.564,0,0,0,1.082-.13,4.031,4.031,0,0,0,.579-.215l.154.72a3.64,3.64,0,0,1-.67.244,4.2,4.2,0,0,1-1.169.135,3.96,3.96,0,0,1-1.49-.249,2.713,2.713,0,0,1-1.017-.724,2.862,2.862,0,0,1-.579-1.1,5.124,5.124,0,0,1-.181-1.4" transform="translate(-133.566 -24.433)" fill="#0899d7"/>
    <path id="Trazado_141" data-name="Trazado 141" d="M200.574,25.485a5.721,5.721,0,0,0-.566-.127,6.947,6.947,0,0,0-.992-.056,2.307,2.307,0,0,0-.954.187,1.985,1.985,0,0,0-.713.528,2.267,2.267,0,0,0-.453.81,3.394,3.394,0,0,0-.159,1.037,3.115,3.115,0,0,0,.183,1.123,2.182,2.182,0,0,0,.469.767,1.737,1.737,0,0,0,.662.434,2.19,2.19,0,0,0,.756.134,3.035,3.035,0,0,0,1.038-.168,2.331,2.331,0,0,0,.728-.385Zm.013,5.068a1.7,1.7,0,0,1-.232.148,3.762,3.762,0,0,1-.379.176,2.885,2.885,0,0,1-.516.145,3.29,3.29,0,0,1-.652.061,3.48,3.48,0,0,1-1.114-.182,2.515,2.515,0,0,1-.946-.567,2.709,2.709,0,0,1-.647-1,3.918,3.918,0,0,1-.247-1.483,3.732,3.732,0,0,1,.219-1.314,3.2,3.2,0,0,1,.62-1.049,2.813,2.813,0,0,1,.993-.694A3.324,3.324,0,0,1,199,24.542a6.885,6.885,0,0,1,1.486.126,8.607,8.607,0,0,1,.921.238V30.98a2.616,2.616,0,0,1-.772,2.13,3.608,3.608,0,0,1-2.328.637,6.02,6.02,0,0,1-1.163-.1,6.183,6.183,0,0,1-.892-.223l.167-.758a3.61,3.61,0,0,0,.841.24,5.29,5.29,0,0,0,1.073.107,2.611,2.611,0,0,0,1.715-.457,1.954,1.954,0,0,0,.538-1.565Z" transform="translate(-156.697 -24.518)" fill="#0899d7"/>
    <path id="Trazado_142" data-name="Trazado 142" d="M233.531,31.561c-.249.07-.582.148-1,.233a7.717,7.717,0,0,1-1.546.125,3.18,3.18,0,0,1-1.244-.213,2.089,2.089,0,0,1-.813-.619,2.516,2.516,0,0,1-.439-.968,5.2,5.2,0,0,1-.139-1.247V25.14h.837V28.6a6.041,6.041,0,0,0,.1,1.2,1.917,1.917,0,0,0,.335.789,1.332,1.332,0,0,0,.594.437,2.578,2.578,0,0,0,.9.135,6.684,6.684,0,0,0,1.029-.064,2.348,2.348,0,0,0,.55-.118V25.14h.838Z" transform="translate(-182.144 -24.987)" fill="#0899d7"/>
    <path id="Trazado_143" data-name="Trazado 143" d="M261.746,24.542a4.12,4.12,0,0,1,.78.068,2.245,2.245,0,0,1,.506.127l-.163.722a2.026,2.026,0,0,0-.42-.114,4.822,4.822,0,0,0-.832-.057,3.892,3.892,0,0,0-.862.077,2.723,2.723,0,0,0-.435.129v5.832h-.833V24.979a6.415,6.415,0,0,1,.887-.288,5.5,5.5,0,0,1,1.373-.149" transform="translate(-206.529 -24.518)" fill="#0899d7"/>
    <path id="Trazado_144" data-name="Trazado 144" d="M282.044,27.92a3.146,3.146,0,0,0-.581-1.988,2.028,2.028,0,0,0-3.135,0,3.14,3.14,0,0,0-.58,1.988,3.114,3.114,0,0,0,.58,1.983,2.041,2.041,0,0,0,3.135,0,3.12,3.12,0,0,0,.581-1.983m.884,0a4.324,4.324,0,0,1-.222,1.429,3.237,3.237,0,0,1-.634,1.095,2.849,2.849,0,0,1-.952.7,2.946,2.946,0,0,1-1.225.251,2.865,2.865,0,0,1-2.179-.952,3.2,3.2,0,0,1-.632-1.095,4.34,4.34,0,0,1-.223-1.429,4.3,4.3,0,0,1,.223-1.426,3.172,3.172,0,0,1,.632-1.1,2.765,2.765,0,0,1,.96-.707,2.877,2.877,0,0,1,1.219-.253,2.933,2.933,0,0,1,1.225.253,2.716,2.716,0,0,1,.952.707,3.2,3.2,0,0,1,.634,1.1,4.28,4.28,0,0,1,.222,1.426" transform="translate(-220.137 -24.433)" fill="#0899d7"/>
    <path id="Trazado_145" data-name="Trazado 145" d="M309.465,30.648a2.633,2.633,0,0,0,1.191-.235.835.835,0,0,0,.465-.8,1.2,1.2,0,0,0-.084-.465.886.886,0,0,0-.273-.346,2.3,2.3,0,0,0-.513-.3c-.205-.094-.466-.205-.773-.335q-.378-.153-.714-.314a3.005,3.005,0,0,1-.589-.373,1.608,1.608,0,0,1-.409-.507,1.488,1.488,0,0,1-.157-.72,1.591,1.591,0,0,1,.614-1.312,2.53,2.53,0,0,1,1.674-.5,4.38,4.38,0,0,1,1.129.118,3.536,3.536,0,0,1,.619.2l-.188.749c-.105-.053-.283-.12-.525-.21a3.481,3.481,0,0,0-1.069-.126,2.429,2.429,0,0,0-.537.054,1.431,1.431,0,0,0-.445.183.97.97,0,0,0-.308.31.855.855,0,0,0-.113.462.942.942,0,0,0,.1.458.983.983,0,0,0,.3.344,2.427,2.427,0,0,0,.488.276c.194.088.41.181.664.282s.5.208.731.312a2.7,2.7,0,0,1,.632.387,1.752,1.752,0,0,1,.435.541,1.678,1.678,0,0,1,.165.791,1.55,1.55,0,0,1-.676,1.366,3.2,3.2,0,0,1-1.841.462,4.651,4.651,0,0,1-1.34-.149,5.384,5.384,0,0,1-.62-.225l.224-.756c.025.013.079.043.165.081s.2.082.344.128a3.676,3.676,0,0,0,.521.122,4.1,4.1,0,0,0,.705.051" transform="translate(-244.134 -24.434)" fill="#0899d7"/>
    <path id="Trazado_146" data-name="Trazado 146" d="M26.955,44.964c-5.043,0-10.57-3.687-10.57-8.23s5.527-8.229,10.57-8.229,10.574,3.681,10.574,8.229-5.53,8.23-10.574,8.23m0-19.884A11.654,11.654,0,1,0,38.6,36.734,11.649,11.649,0,0,0,26.955,25.08" transform="translate(-15.308 -24.94)" fill="#0899d7"/>
    <path id="Trazado_147" data-name="Trazado 147" d="M470.707,71.969a8.107,8.107,0,0,1-2.32-.306,3.43,3.43,0,0,1-1.413-.809,2.61,2.61,0,0,1-.7-1.256,6.581,6.581,0,0,1-.191-1.665V54.492l3.282.534V67.269a4.214,4.214,0,0,0,.073.8,1.262,1.262,0,0,0,.793.995,2.947,2.947,0,0,0,.946.194Z" transform="translate(-368.317 -47.969)" fill="#0899d7"/>
    <path id="Trazado_148" data-name="Trazado 148" d="M149.627,81.8a4.546,4.546,0,0,0-.408-2.249,1.515,1.515,0,0,0-1.4-.664c-.2,0-.417.01-.636.032s-.437.044-.644.075v9.113h-3.286V76.746c.284-.072.61-.152.986-.231s.768-.158,1.187-.22.848-.119,1.294-.157.874-.054,1.3-.054a5.507,5.507,0,0,1,2.04.319,4.559,4.559,0,0,1,1.286.761,5.534,5.534,0,0,1,1.622-.792,5.669,5.669,0,0,1,1.688-.288,5.844,5.844,0,0,1,2.283.384,3.457,3.457,0,0,1,1.42,1.092,4.142,4.142,0,0,1,.728,1.673,10.914,10.914,0,0,1,.2,2.168v6.7H156V81.8a4.5,4.5,0,0,0-.41-2.249,1.507,1.507,0,0,0-1.4-.664,3.2,3.2,0,0,0-.737.13,2.987,2.987,0,0,0-.781.333,5.16,5.16,0,0,1,.2,1.072c.031.375.042.772.042,1.2v6.489h-3.282Z" transform="translate(-115.503 -64.875)" fill="#0899d7"/>
    <path id="Trazado_149" data-name="Trazado 149" d="M234.674,89.7h-4.935a6.607,6.607,0,0,1-2.461-.4,3.728,3.728,0,0,1-1.553-1.112,4.306,4.306,0,0,1-.811-1.713,9.58,9.58,0,0,1-.245-2.271V78.117h3.286v5.689a4.777,4.777,0,0,0,.414,2.3,1.677,1.677,0,0,0,1.565.705h1.458V78.117h3.283Z" transform="translate(-179.263 -66.467)" fill="#0899d7"/>
    <path id="Trazado_150" data-name="Trazado 150" d="M278.406,78.117h4.936a6.648,6.648,0,0,1,2.462.4,3.841,3.841,0,0,1,1.555,1.118,4.358,4.358,0,0,1,.811,1.707,11.345,11.345,0,0,1,.246,2.47V89.7h-3.29v-5.49a5.715,5.715,0,0,0-.415-2.5,1.666,1.666,0,0,0-1.566-.7h-1.457V89.7h-3.282Z" transform="translate(-221.346 -66.467)" fill="#0899d7"/>
    <path id="Trazado_151" data-name="Trazado 151" d="M391.247,71.117h-3.357V59.651h3.357Zm.383-14.655a1.942,1.942,0,0,1-.619,1.519,2.242,2.242,0,0,1-2.946,0,2.163,2.163,0,0,1,0-3.039,2.229,2.229,0,0,1,2.946,0,1.935,1.935,0,0,1,.619,1.52" transform="translate(-306.734 -47.886)" fill="#0899d7"/>
    <path id="Trazado_152" data-name="Trazado 152" d="M418.479,87.358h-2.527a1.082,1.082,0,1,1,0-2.148h2.527Zm-1.727-8.946H412.32l.662,2.88h3.77a1.516,1.516,0,0,1,1.769,1.57h-3.207a3.581,3.581,0,1,0-.007,7.084H421.4V82.83c0-3.118-2.305-4.461-4.648-4.418" transform="translate(-325.345 -66.697)" fill="#0899d7"/>
    <path id="Trazado_153" data-name="Trazado 153" d="M497.42,64h.213a1.146,1.146,0,0,0,.465-.076.315.315,0,0,0,.172-.319.309.309,0,0,0-.162-.3.877.877,0,0,0-.409-.086h-.133a.66.66,0,0,0-.145.016Zm.993,1.521c-.1-.213-.2-.4-.3-.576a3.665,3.665,0,0,0-.286-.433h-.406v1.008h-.63V62.773a3.064,3.064,0,0,1,.457-.082,3.76,3.76,0,0,1,.4-.022,1.591,1.591,0,0,1,.944.233.816.816,0,0,1,.319.706.78.78,0,0,1-.481.744c.1.147.207.314.322.5a5.829,5.829,0,0,1,.339.663Z" transform="translate(-392.367 -54.371)" fill="#0899d7"/>
    <path id="Trazado_154" data-name="Trazado 154" d="M492.265,58.042a2.119,2.119,0,1,0,2.119,2.117,2.121,2.121,0,0,0-2.119-2.117m0,4.676a2.557,2.557,0,1,1,2.557-2.559,2.56,2.56,0,0,1-2.557,2.559" transform="translate(-386.823 -50.406)" fill="#0899d7"/>
  </g>
  <path id="Trazado_155" data-name="Trazado 155" d="M337.264,68.916h-1.835a2.9,2.9,0,0,1,0-5.779h1.835Zm0-13.459v4.733H335.1a5.746,5.746,0,0,0,.007,11.491h5.654v-16.6Z" transform="translate(-261.297 -48.431)" fill="#0899d7"/>
  <path id="Trazado_156" data-name="Trazado 156" d="M41.964,59.782c-.126-.07-.115-.164.023-.211l9.9-3.586c.128-.048.2.023.149.156l-3.575,9.9c-.053.134-.151.141-.22.016l-2.18-3.875a1.149,1.149,0,0,0-.352-.348Z" transform="translate(-36.114 -49.126)" fill="#0899d7"/>
</svg>
