<svg id="Grupo_199" data-name="Grupo 199" xmlns="http://www.w3.org/2000/svg" width="272" height="26.31" viewBox="0 0 272 26.31">
  <path id="Trazado_667" data-name="Trazado 667" d="M678.481,349.726l-4.719-12.177h1.747l3.161,8.847c.253.715.478,1.376.638,2,.192-.675.417-1.334.66-2l3.283-8.847H684.9l-4.764,12.177Z" transform="translate(-669.069 -330.984)" fill="#fff"/>
  <rect id="Rectángulo_465" data-name="Rectángulo 465" width="1.606" height="12.177" transform="translate(19.261 6.565)" fill="#fff"/>
  <path id="Trazado_668" data-name="Trazado 668" d="M704.007,344.914v-1.432l5.152-.009v4.518a9.065,9.065,0,0,1-2.451,1.425,7.261,7.261,0,0,1-2.584.484,6.987,6.987,0,0,1-3.265-.771,5.027,5.027,0,0,1-2.212-2.223,6.876,6.876,0,0,1-.746-3.25,7.359,7.359,0,0,1,.746-3.318,4.8,4.8,0,0,1,2.133-2.28,6.663,6.663,0,0,1,3.214-.751,6.237,6.237,0,0,1,2.387.426,3.9,3.9,0,0,1,1.672,1.186,5.292,5.292,0,0,1,.925,2.006l-1.453.393a4.7,4.7,0,0,0-.683-1.472,2.773,2.773,0,0,0-1.16-.839,4.111,4.111,0,0,0-1.677-.322,4.811,4.811,0,0,0-1.914.337,3.632,3.632,0,0,0-1.3.884,4.059,4.059,0,0,0-.762,1.2,6.31,6.31,0,0,0-.468,2.452,5.926,5.926,0,0,0,.559,2.729,3.569,3.569,0,0,0,1.632,1.624,4.971,4.971,0,0,0,2.276.526,5.544,5.544,0,0,0,2.041-.4,5.6,5.6,0,0,0,1.516-.864v-2.262Z" transform="translate(-672.901 -330.946)" fill="#fff"/>
  <rect id="Rectángulo_466" data-name="Rectángulo 466" width="1.615" height="12.177" transform="translate(40.603 6.565)" fill="#fff"/>
  <path id="Trazado_669" data-name="Trazado 669" d="M723.693,349.726V337.549h1.614v10.735H731.3v1.442Z" transform="translate(-676.996 -330.984)" fill="#fff"/>
  <path id="Trazado_670" data-name="Trazado 670" d="M735.45,349.722l4.681-12.172h1.731l4.982,12.172H745.01l-1.422-3.684H738.5l-1.345,3.684Zm3.508-5h4.134l-1.269-3.372c-.391-1.025-.674-1.867-.864-2.528a15.108,15.108,0,0,1-.659,2.334Z" transform="translate(-678.863 -330.984)" fill="#fff"/>
  <path id="Trazado_671" data-name="Trazado 671" d="M752.54,349.727V337.55h4.2a10.458,10.458,0,0,1,2.169.173,4.13,4.13,0,0,1,1.788.871,4.944,4.944,0,0,1,1.438,2.084,8.194,8.194,0,0,1,.483,2.9,8.451,8.451,0,0,1-.331,2.456,5.7,5.7,0,0,1-.819,1.769,4.783,4.783,0,0,1-1.115,1.107,4.432,4.432,0,0,1-1.454.612,8.266,8.266,0,0,1-1.958.207Zm1.62-1.442h2.6a6.324,6.324,0,0,0,1.894-.219,2.574,2.574,0,0,0,1.084-.638,3.776,3.776,0,0,0,.9-1.534,7.537,7.537,0,0,0,.315-2.352,5.775,5.775,0,0,0-.617-2.936,3.216,3.216,0,0,0-1.534-1.38,6.546,6.546,0,0,0-2.079-.237H754.16Z" transform="translate(-681.577 -330.984)" fill="#fff"/>
  <path id="Trazado_672" data-name="Trazado 672" d="M768.594,343.75a6.658,6.658,0,0,1,1.621-4.741,5.556,5.556,0,0,1,4.209-1.714,5.871,5.871,0,0,1,3.04.8,5.257,5.257,0,0,1,2.063,2.251,7.28,7.28,0,0,1,.707,3.269,7.1,7.1,0,0,1-.745,3.318,5.055,5.055,0,0,1-2.122,2.2,5.967,5.967,0,0,1-2.948.764,5.8,5.8,0,0,1-3.075-.833,5.418,5.418,0,0,1-2.058-2.27,7,7,0,0,1-.691-3.046m1.659.033a4.9,4.9,0,0,0,1.184,3.464,4.125,4.125,0,0,0,5.959-.016,5.127,5.127,0,0,0,1.181-3.616A6.225,6.225,0,0,0,778.07,341a3.868,3.868,0,0,0-1.466-1.719,4.017,4.017,0,0,0-2.176-.6,4.091,4.091,0,0,0-2.943,1.172,5.268,5.268,0,0,0-1.233,3.929" transform="translate(-684.126 -330.944)" fill="#fff"/>
  <path id="Trazado_673" data-name="Trazado 673" d="M792.705,334.8l.9-.082a2.019,2.019,0,0,0,.3.887,1.62,1.62,0,0,0,.732.574,2.71,2.71,0,0,0,1.123.22,2.671,2.671,0,0,0,.967-.162,1.3,1.3,0,0,0,.623-.453.97.97,0,0,0,.208-.623.951.951,0,0,0-.194-.6,1.482,1.482,0,0,0-.655-.427,9.281,9.281,0,0,0-1.3-.35,6.777,6.777,0,0,1-1.4-.456,2.025,2.025,0,0,1-.782-.679,1.692,1.692,0,0,1-.253-.908,1.9,1.9,0,0,1,.306-1.032,2.03,2.03,0,0,1,.925-.726,3.328,3.328,0,0,1,1.328-.239,3.486,3.486,0,0,1,1.423.258,2.087,2.087,0,0,1,.952.759,2.256,2.256,0,0,1,.361,1.145l-.927.074a1.5,1.5,0,0,0-.5-1.043,1.937,1.937,0,0,0-1.269-.357,1.988,1.988,0,0,0-1.266.331.95.95,0,0,0-.417.757.812.812,0,0,0,.3.646,3.545,3.545,0,0,0,1.445.526,9.632,9.632,0,0,1,1.61.465,2.22,2.22,0,0,1,.935.743,1.732,1.732,0,0,1,.311,1.037,2,2,0,0,1-.338,1.087,2.179,2.179,0,0,1-.956.8,3.283,3.283,0,0,1-1.4.288,4.251,4.251,0,0,1-1.653-.288,2.3,2.3,0,0,1-1.049-.866,2.411,2.411,0,0,1-.393-1.309" transform="translate(-687.954 -329.745)" fill="#fff"/>
  <path id="Trazado_674" data-name="Trazado 674" d="M805.919,329.887h.965v4.2a4.767,4.767,0,0,1-.253,1.74,2.062,2.062,0,0,1-.895,1.049,3.12,3.12,0,0,1-1.691.4,3.468,3.468,0,0,1-1.677-.358,1.99,1.99,0,0,1-.929-1.022,4.921,4.921,0,0,1-.273-1.81v-4.2h.967v4.194a4.393,4.393,0,0,0,.168,1.4,1.356,1.356,0,0,0,.609.694,2.106,2.106,0,0,0,1.041.239,2.056,2.056,0,0,0,1.519-.473,2.825,2.825,0,0,0,.449-1.86Z" transform="translate(-689.297 -329.768)" fill="#fff"/>
  <path id="Trazado_675" data-name="Trazado 675" d="M809.867,337.16v-7.272h2.738a7.5,7.5,0,0,1,1.11.061,2.219,2.219,0,0,1,.9.35,1.573,1.573,0,0,1,.586.7,2.183,2.183,0,0,1,.226.99,2.223,2.223,0,0,1-.594,1.565,2.841,2.841,0,0,1-2.144.647h-1.858v2.959Zm.962-3.823h1.879a2.033,2.033,0,0,0,1.327-.339,1.269,1.269,0,0,0,.386-.981,1.313,1.313,0,0,0-.224-.779,1.137,1.137,0,0,0-.6-.438,5.223,5.223,0,0,0-.911-.058h-1.854Z" transform="translate(-690.679 -329.768)" fill="#fff"/>
  <path id="Trazado_676" data-name="Trazado 676" d="M817.947,337.161v-7.275h5.268v.857h-4.3v2.229h4.026v.853h-4.026v2.468h4.471v.867Z" transform="translate(-691.962 -329.767)" fill="#fff"/>
  <path id="Trazado_677" data-name="Trazado 677" d="M826,337.161v-7.273h3.227a4.387,4.387,0,0,1,1.474.19,1.661,1.661,0,0,1,.821.7,2.134,2.134,0,0,1,.291,1.092,1.82,1.82,0,0,1-.5,1.308,2.478,2.478,0,0,1-1.546.67,2.711,2.711,0,0,1,.583.358,5.425,5.425,0,0,1,.795.978l1.266,1.979H831.2l-.966-1.522c-.281-.427-.511-.769-.692-1a2.482,2.482,0,0,0-.495-.492,1.461,1.461,0,0,0-.427-.188,3.034,3.034,0,0,0-.542-.039h-1.126v3.238Zm.954-4.062h2.079a2.831,2.831,0,0,0,1.026-.146,1.052,1.052,0,0,0,.565-.427,1.151,1.151,0,0,0,.194-.658,1.089,1.089,0,0,0-.369-.849,1.761,1.761,0,0,0-1.186-.333h-2.309Z" transform="translate(-693.24 -329.768)" fill="#fff"/>
  <rect id="Rectángulo_467" data-name="Rectángulo 467" width="0.958" height="7.275" transform="translate(140.245 0.118)" fill="#fff"/>
  <path id="Trazado_678" data-name="Trazado 678" d="M838.047,337.161v-7.275h.987l3.823,5.714v-5.714h.922v7.275H842.8l-3.823-5.721v5.721Z" transform="translate(-695.153 -329.767)" fill="#fff"/>
  <path id="Trazado_679" data-name="Trazado 679" d="M848.534,337.161v-6.418H846.14v-.857H851.9v.857h-2.4v6.418Z" transform="translate(-696.438 -329.767)" fill="#fff"/>
  <path id="Trazado_680" data-name="Trazado 680" d="M854.176,337.161v-7.275h5.275v.857h-4.307v2.229h4.026v.853h-4.026v2.468h4.469v.867Z" transform="translate(-697.714 -329.767)" fill="#fff"/>
  <path id="Trazado_681" data-name="Trazado 681" d="M862.209,337.161v-7.275h.982l3.821,5.714v-5.714h.932v7.275h-1l-3.815-5.721v5.721Z" transform="translate(-698.99 -329.767)" fill="#fff"/>
  <path id="Trazado_682" data-name="Trazado 682" d="M870.943,337.164v-7.277h2.506a6.075,6.075,0,0,1,1.293.1,2.536,2.536,0,0,1,1.07.518,2.916,2.916,0,0,1,.857,1.246,5,5,0,0,1,.288,1.73,4.858,4.858,0,0,1-.2,1.47,3.647,3.647,0,0,1-.5,1.059,2.537,2.537,0,0,1-.665.655,2.792,2.792,0,0,1-.862.37,5.765,5.765,0,0,1-1.17.126Zm.963-.867h1.552a3.675,3.675,0,0,0,1.126-.13,1.5,1.5,0,0,0,.652-.377,2.343,2.343,0,0,0,.538-.918,4.69,4.69,0,0,0,.187-1.409,3.4,3.4,0,0,0-.369-1.75,1.925,1.925,0,0,0-.917-.827,4.109,4.109,0,0,0-1.238-.136h-1.53Z" transform="translate(-700.376 -329.768)" fill="#fff"/>
  <path id="Trazado_683" data-name="Trazado 683" d="M879.692,337.161v-7.275h5.259v.857h-4.3v2.229h4.024v.853h-4.024v2.468h4.46v.867Z" transform="translate(-701.765 -329.767)" fill="#fff"/>
  <path id="Trazado_684" data-name="Trazado 684" d="M887.7,337.161v-7.275h.991l3.816,5.714v-5.714h.934v7.275h-.992l-3.823-5.721v5.721Z" transform="translate(-703.037 -329.767)" fill="#fff"/>
  <path id="Trazado_685" data-name="Trazado 685" d="M901.577,334.581l.969.248a3.223,3.223,0,0,1-1.089,1.811,3,3,0,0,1-1.923.619,3.456,3.456,0,0,1-1.913-.482,2.945,2.945,0,0,1-1.127-1.391,4.862,4.862,0,0,1-.378-1.943,4.24,4.24,0,0,1,.434-1.986,3.028,3.028,0,0,1,1.235-1.277,3.588,3.588,0,0,1,1.767-.435,2.976,2.976,0,0,1,1.832.551,2.81,2.81,0,0,1,1.036,1.561l-.954.225a2.181,2.181,0,0,0-.73-1.161,1.927,1.927,0,0,0-1.2-.369,2.357,2.357,0,0,0-1.4.411,2.219,2.219,0,0,0-.8,1.081,4.487,4.487,0,0,0-.228,1.395,4.28,4.28,0,0,0,.277,1.623,2.087,2.087,0,0,0,.831,1.037,2.439,2.439,0,0,0,1.239.335,2.108,2.108,0,0,0,1.373-.458,2.378,2.378,0,0,0,.751-1.395" transform="translate(-704.373 -329.745)" fill="#fff"/>
  <rect id="Rectángulo_468" data-name="Rectángulo 468" width="0.969" height="7.275" transform="translate(199.521 0.118)" fill="#fff"/>
  <path id="Trazado_686" data-name="Trazado 686" d="M907.582,337.16l2.788-7.272h1.04l2.972,7.272h-1.1l-.858-2.2H909.4l-.8,2.2Zm2.088-2.985h2.473l-.757-2.011c-.225-.623-.4-1.12-.513-1.518a10,10,0,0,1-.407,1.4Z" transform="translate(-706.194 -329.768)" fill="#fff"/>
  <path id="Trazado_687" data-name="Trazado 687" d="M919.337,337.161v-7.275h4.9v.857H920.3V333h3.414v.851H920.3v3.312Z" transform="translate(-708.06 -329.767)" fill="#fff"/>
  <rect id="Rectángulo_469" data-name="Rectángulo 469" width="0.96" height="7.275" transform="translate(217.595 0.118)" fill="#fff"/>
  <path id="Trazado_688" data-name="Trazado 688" d="M930,337.161v-7.275h.978l3.823,5.714v-5.714h.92v7.275h-.99l-3.814-5.721v5.721Z" transform="translate(-709.754 -329.767)" fill="#fff"/>
  <path id="Trazado_689" data-name="Trazado 689" d="M937.77,337.16l2.8-7.272H941.6l2.984,7.272h-1.1l-.849-2.2H939.6l-.8,2.2Zm2.111-2.985h2.469l-.763-2.011c-.237-.623-.4-1.12-.521-1.518a10.773,10.773,0,0,1-.39,1.4Z" transform="translate(-710.987 -329.768)" fill="#fff"/>
  <path id="Trazado_690" data-name="Trazado 690" d="M946.783,337.161v-7.275h.978l3.821,5.714v-5.714h.927v7.275h-.987L947.7,331.44v5.721Z" transform="translate(-712.418 -329.767)" fill="#fff"/>
  <path id="Trazado_691" data-name="Trazado 691" d="M960.648,334.581l.961.248a3.238,3.238,0,0,1-1.085,1.811,3.01,3.01,0,0,1-1.932.619,3.453,3.453,0,0,1-1.9-.482,2.947,2.947,0,0,1-1.125-1.391,4.91,4.91,0,0,1-.384-1.943,4.237,4.237,0,0,1,.437-1.986,2.968,2.968,0,0,1,1.235-1.277,3.591,3.591,0,0,1,1.761-.435,2.994,2.994,0,0,1,1.84.551,2.953,2.953,0,0,1,1.045,1.561l-.958.225a2.307,2.307,0,0,0-.729-1.161,1.975,1.975,0,0,0-1.215-.369,2.382,2.382,0,0,0-1.4.411,2.126,2.126,0,0,0-.784,1.081,4.322,4.322,0,0,0-.234,1.395,4.549,4.549,0,0,0,.27,1.623,2.088,2.088,0,0,0,.842,1.037,2.427,2.427,0,0,0,1.24.335,2.076,2.076,0,0,0,1.362-.458,2.438,2.438,0,0,0,.763-1.395" transform="translate(-713.751 -329.745)" fill="#fff"/>
  <rect id="Rectángulo_470" data-name="Rectángulo 470" width="0.963" height="7.275" transform="translate(249.21 0.118)" fill="#fff"/>
  <path id="Trazado_692" data-name="Trazado 692" d="M967.615,337.161v-7.275h5.259v.857h-4.3v2.229H972.6v.853h-4.026v2.468h4.468v.868Z" transform="translate(-715.725 -329.767)" fill="#fff"/>
  <path id="Trazado_693" data-name="Trazado 693" d="M975.665,337.161v-7.273h3.221a4.41,4.41,0,0,1,1.483.19,1.613,1.613,0,0,1,.808.7,2.031,2.031,0,0,1,.305,1.092,1.839,1.839,0,0,1-.5,1.308,2.5,2.5,0,0,1-1.548.67,2.614,2.614,0,0,1,.579.358,5.108,5.108,0,0,1,.8.978l1.255,1.979h-1.2l-.963-1.521c-.279-.428-.518-.77-.69-1a3.045,3.045,0,0,0-.489-.492,1.639,1.639,0,0,0-.443-.188,2.888,2.888,0,0,0-.536-.039h-1.117v3.238Zm.963-4.062H978.7a2.829,2.829,0,0,0,1.028-.146,1.076,1.076,0,0,0,.567-.427,1.193,1.193,0,0,0,.2-.658,1.092,1.092,0,0,0-.38-.849,1.763,1.763,0,0,0-1.186-.333h-2.3Z" transform="translate(-717.004 -329.768)" fill="#fff"/>
  <path id="Trazado_694" data-name="Trazado 694" d="M983.42,337.16l2.792-7.272h1.04l2.983,7.272h-1.1l-.853-2.2h-3.042l-.8,2.2Zm2.1-2.985h2.463l-.757-2.011c-.236-.623-.4-1.12-.509-1.518a9.8,9.8,0,0,1-.4,1.4Z" transform="translate(-718.235 -329.768)" fill="#fff"/>
  <path id="Trazado_695" data-name="Trazado 695" d="M852.485,351.65v-7.278h2.5a6.4,6.4,0,0,1,1.3.112,2.465,2.465,0,0,1,1.062.52,3.047,3.047,0,0,1,.855,1.235,5.59,5.59,0,0,1,.093,3.2,3.55,3.55,0,0,1-.5,1.063,2.348,2.348,0,0,1-.666.649,2.38,2.38,0,0,1-.858.371,5.178,5.178,0,0,1-1.178.127Zm.958-.853h1.551a3.467,3.467,0,0,0,1.132-.147,1.5,1.5,0,0,0,.652-.371,2.247,2.247,0,0,0,.528-.919,4.582,4.582,0,0,0,.194-1.4,3.439,3.439,0,0,0-.368-1.749,1.871,1.871,0,0,0-.92-.821,3.77,3.77,0,0,0-1.242-.151h-1.528Z" transform="translate(-697.446 -332.067)" fill="#fff"/>
  <path id="Trazado_696" data-name="Trazado 696" d="M861.23,351.65v-7.275h5.257v.855h-4.3v2.227h4.018v.855h-4.018v2.481h4.459v.857Z" transform="translate(-698.834 -332.068)" fill="#fff"/>
  <path id="Trazado_697" data-name="Trazado 697" d="M877.755,349.077l.962.241a3.239,3.239,0,0,1-1.087,1.811,3.035,3.035,0,0,1-1.923.617,3.533,3.533,0,0,1-1.911-.465,3.033,3.033,0,0,1-1.128-1.4,4.945,4.945,0,0,1-.384-1.948,4.345,4.345,0,0,1,.438-1.986,3.03,3.03,0,0,1,1.232-1.279,3.679,3.679,0,0,1,1.767-.436,3.031,3.031,0,0,1,1.838.552,2.847,2.847,0,0,1,1.029,1.558l-.936.225a2.377,2.377,0,0,0-.737-1.156,1.992,1.992,0,0,0-1.217-.366,2.329,2.329,0,0,0-1.4.411,2.222,2.222,0,0,0-.792,1.079,4.443,4.443,0,0,0-.221,1.4,4.526,4.526,0,0,0,.269,1.621,1.991,1.991,0,0,0,.84,1.03,2.354,2.354,0,0,0,1.239.348A2.1,2.1,0,0,0,877,350.47a2.45,2.45,0,0,0,.759-1.392" transform="translate(-700.589 -332.045)" fill="#fff"/>
  <path id="Trazado_698" data-name="Trazado 698" d="M881,348.076a3.945,3.945,0,0,1,.964-2.828,3.331,3.331,0,0,1,2.517-1.021,3.412,3.412,0,0,1,1.82.489,3.033,3.033,0,0,1,1.225,1.333,4.4,4.4,0,0,1,.426,1.954,4.306,4.306,0,0,1-.446,1.976,3.049,3.049,0,0,1-1.266,1.321,3.621,3.621,0,0,1-1.764.451,3.4,3.4,0,0,1-1.838-.5,3.209,3.209,0,0,1-1.218-1.345,4.082,4.082,0,0,1-.419-1.83m.993.022a2.93,2.93,0,0,0,.7,2.07,2.282,2.282,0,0,0,1.773.762,2.315,2.315,0,0,0,1.783-.771,3.084,3.084,0,0,0,.708-2.166,3.68,3.68,0,0,0-.3-1.546,2.444,2.444,0,0,0-3.93-.692,3.11,3.11,0,0,0-.737,2.344" transform="translate(-701.973 -332.044)" fill="#fff"/>
  <path id="Trazado_699" data-name="Trazado 699" d="M890.689,351.65v-7.275h.963v6.418h3.58v.857Z" transform="translate(-703.512 -332.068)" fill="#fff"/>
  <path id="Trazado_700" data-name="Trazado 700" d="M897.1,348.076a3.973,3.973,0,0,1,.968-2.828,3.327,3.327,0,0,1,2.524-1.021,3.382,3.382,0,0,1,1.808.489,3.1,3.1,0,0,1,1.242,1.333,4.487,4.487,0,0,1,.422,1.954,4.379,4.379,0,0,1-.445,1.976,3.073,3.073,0,0,1-1.275,1.321,3.61,3.61,0,0,1-1.764.451,3.391,3.391,0,0,1-1.836-.5,3.183,3.183,0,0,1-1.222-1.345,4.108,4.108,0,0,1-.421-1.83m1,.022a2.879,2.879,0,0,0,.7,2.07,2.275,2.275,0,0,0,1.773.762,2.334,2.334,0,0,0,1.789-.771,3.066,3.066,0,0,0,.7-2.166,3.677,3.677,0,0,0-.306-1.546,2.44,2.44,0,0,0-3.926-.692,3.089,3.089,0,0,0-.734,2.344" transform="translate(-704.53 -332.044)" fill="#fff"/>
  <path id="Trazado_701" data-name="Trazado 701" d="M906.805,351.65v-7.274h1.458l1.72,5.152c.161.478.272.837.336,1.076.088-.272.22-.655.391-1.164l1.749-5.063h1.291v7.274h-.922v-6.086l-2.122,6.086h-.858l-2.1-6.191v6.191Z" transform="translate(-706.07 -332.068)" fill="#fff"/>
  <path id="Trazado_702" data-name="Trazado 702" d="M916.861,351.65v-7.278h2.724a3.335,3.335,0,0,1,1.34.223,1.7,1.7,0,0,1,.792.679,1.812,1.812,0,0,1,.291.958,1.634,1.634,0,0,1-.269.883,1.713,1.713,0,0,1-.75.665,1.954,1.954,0,0,1,1.019.653,1.855,1.855,0,0,1,.352,1.107,2.066,2.066,0,0,1-.223.951,1.8,1.8,0,0,1-.531.676,2.049,2.049,0,0,1-.8.357,4.791,4.791,0,0,1-1.167.127Zm.962-4.221h1.572a3.413,3.413,0,0,0,.927-.078,1.029,1.029,0,0,0,.551-.364,1.118,1.118,0,0,0,.184-.641,1.148,1.148,0,0,0-.176-.633.9.9,0,0,0-.5-.377,4.076,4.076,0,0,0-1.1-.1h-1.458Zm0,3.368h1.819a4.077,4.077,0,0,0,.652-.038,1.58,1.58,0,0,0,.547-.2,1.113,1.113,0,0,0,.373-.4,1.34,1.34,0,0,0,.138-.622,1.249,1.249,0,0,0-.2-.708,1.18,1.18,0,0,0-.578-.426,4.053,4.053,0,0,0-1.07-.116h-1.679Z" transform="translate(-707.667 -332.067)" fill="#fff"/>
  <rect id="Rectángulo_471" data-name="Rectángulo 471" width="0.958" height="7.275" transform="translate(216.179 12.308)" fill="#fff"/>
  <path id="Trazado_703" data-name="Trazado 703" d="M927.373,351.65l2.794-7.273h1.043l2.974,7.273h-1.1l-.859-2.2H929.2l-.807,2.2Zm2.1-2.994h2.462l-.761-2.008c-.224-.6-.391-1.114-.5-1.5a8.474,8.474,0,0,1-.4,1.389Z" transform="translate(-709.336 -332.068)" fill="#fff"/>
  <rect id="Rectángulo_472" data-name="Rectángulo 472" width="99.162" height="2.041" transform="translate(0 0.365)" fill="#fff"/>
  <rect id="Rectángulo_473" data-name="Rectángulo 473" width="99.162" height="2.041" transform="translate(0 24.269)" fill="#fff"/>
</svg>
